<svg xmlns="http://www.w3.org/2000/svg" viewBox="0 0 760 500" role="img" aria-label="Panel de crecimiento">
<rect width="760" height="500" rx="24" fill="#f4f4f6"/><rect x="34" y="34" width="692" height="432" rx="18" fill="#fff"/><rect x="62" y="64" width="138" height="16" rx="8" fill="#131316"/><rect x="62" y="108" width="112" height="318" rx="12" fill="#131316"/><rect x="198" y="108" width="500" height="92" rx="12" fill="#f4f4f6"/><rect x="222" y="132" width="110" height="12" rx="6" fill="#bcc2c3"/><rect x="222" y="158" width="210" height="12" rx="6" fill="#131316"/><rect x="198" y="220" width="240" height="206" rx="12" fill="#f4f4f6"/><rect x="458" y="220" width="240" height="206" rx="12" fill="#4891ff"/><path d="M224 376c35-62 65-20 96-68s56 11 84-46" fill="none" stroke="#4891ff" stroke-width="8" stroke-linecap="round"/><circle cx="588" cy="322" r="46" fill="#fff" opacity=".9"/><path d="M565 322h46M588 299v46" stroke="#4891ff" stroke-width="8" stroke-linecap="round"/></svg>
